<?xml version="1.0" encoding="iso-8859-1"?>
<!-- Generator: Adobe Illustrator 17.1.0, SVG Export Plug-In . SVG Version: 6.00 Build 0)  -->
<!DOCTYPE svg PUBLIC "-//W3C//DTD SVG 1.1//EN" "http://www.w3.org/Graphics/SVG/1.1/DTD/svg11.dtd">
<svg version="1.1" id="Capa_1" xmlns="http://www.w3.org/2000/svg" xmlns:xlink="http://www.w3.org/1999/xlink" x="0px" y="0px"
	 viewBox="0 0 202.918 202.918" style="enable-background:new 0 0 202.918 202.918;" xml:space="preserve">
<path d="M179.42,131.856c-5.804-6.089-14.267-8.448-23.829-6.643c-16.372,3.087-25.862,15.95-35.91,29.569
	c-7.544,10.226-15.345,20.799-26.563,27.736c-25.604,15.834-55.418,12.104-64.967-1.81c-4.712-6.866-2.384-13.945,0.986-19.203
	l3.043,4.067c0.023,0.031,0.054,0.055,0.078,0.085c0.112,0.141,0.237,0.269,0.365,0.397c0.113,0.115,0.223,0.231,0.345,0.334
	c0.096,0.08,0.201,0.149,0.304,0.222c0.177,0.128,0.356,0.25,0.548,0.354c0.061,0.032,0.126,0.057,0.189,0.087
	c0.253,0.123,0.513,0.228,0.785,0.307c0.008,0.002,0.015,0.007,0.023,0.009c0.387,0.108,3.961,1.057,10.185,1.057
	c0.001,0,0.001,0,0.002,0c15.949,0,48.808-6.197,89.695-47.69C191.589,63,181.102,21.28,180.628,19.532
	c-0.002-0.007-0.006-0.014-0.008-0.021c-0.077-0.275-0.181-0.541-0.306-0.801c-0.023-0.048-0.041-0.099-0.065-0.146
	c-0.108-0.208-0.239-0.404-0.377-0.597c-0.061-0.087-0.116-0.176-0.183-0.259c-0.107-0.131-0.231-0.25-0.353-0.372
	c-0.125-0.126-0.248-0.252-0.387-0.365c-0.026-0.021-0.045-0.047-0.072-0.068l-18.789-14.48C158.03,0.838,155.571,0,152.976,0
	c-3.659,0-7.151,1.747-9.342,4.674L118.809,37.85c-3.799,5.074-2.804,12.353,2.218,16.223l16.074,12.388
	c-4.238,9.668-11.454,20.885-23.482,33.092c-11.903,12.08-22.878,19.413-32.471,23.738l-12.043-16.093
	c-2.191-2.927-5.683-4.674-9.341-4.674c-2.596,0-5.056,0.839-7.114,2.426L20,130.11c-5.021,3.87-6.016,11.147-2.218,16.224
	l5.057,6.758c-6.472,8.593-11.235,21.181-2.934,33.277c6.575,9.58,18.963,15.571,33.988,16.438c1.294,0.075,2.593,0.112,3.896,0.112
	c13.814-0.001,28.084-4.161,40.588-11.893c12.859-7.953,21.621-19.828,29.351-30.306c9.232-12.513,17.206-23.32,29.717-25.68
	c6.295-1.185,11.254,0.062,14.737,3.716c5.229,5.486,6.69,15.724,3.907,27.386c-0.641,2.686,1.017,5.383,3.703,6.023
	c2.687,0.646,5.383-1.017,6.024-3.703C189.389,153.49,186.998,139.806,179.42,131.856z"/>
<g>
</g>
<g>
</g>
<g>
</g>
<g>
</g>
<g>
</g>
<g>
</g>
<g>
</g>
<g>
</g>
<g>
</g>
<g>
</g>
<g>
</g>
<g>
</g>
<g>
</g>
<g>
</g>
<g>
</g>
</svg>
